<svg width="20" height="20" viewBox="0 0 20 20" fill="none" xmlns="http://www.w3.org/2000/svg">
<path d="M17.1875 2.1875H2.8125C2.4668 2.1875 2.1875 2.4668 2.1875 2.8125V17.1875C2.1875 17.5332 2.4668 17.8125 2.8125 17.8125H17.1875C17.5332 17.8125 17.8125 17.5332 17.8125 17.1875V2.8125C17.8125 2.4668 17.5332 2.1875 17.1875 2.1875ZM16.4062 11.4062C16.4062 14.1677 14.1677 16.4062 11.4062 16.4062H8.59375C5.83233 16.4062 3.59375 14.1677 3.59375 11.4062V8.59375C3.59375 5.83233 5.83233 3.59375 8.59375 3.59375H11.4062C14.1677 3.59375 16.4062 5.83233 16.4062 8.59375V11.4062Z" fill="#A0A8B2"/>
<path d="M5.95312 10.2344H6.94336C7.01562 10.2344 7.07617 10.1758 7.07617 10.1016V8.56061C7.07617 8.17584 7.38672 7.8653 7.76953 7.8653H11.7871V8.90827C11.7871 9.01959 11.9141 9.08014 12 9.01178L14.1309 7.33795C14.1992 7.28522 14.1992 7.1817 14.1309 7.12897L12 5.45514C11.9141 5.38678 11.7871 5.44928 11.7871 5.55866V6.60163H7.76758C6.69141 6.60163 5.82031 7.47663 5.82031 8.5567V10.0977C5.82031 10.1758 5.87891 10.2344 5.95312 10.2344ZM5.87109 12.8692L8.00195 14.543C8.08789 14.6114 8.21484 14.5489 8.21484 14.4395V13.3965H12.2324C13.3086 13.3965 14.1797 12.5215 14.1797 11.4415V9.90045C14.1797 9.82819 14.1211 9.76764 14.0469 9.76764H13.0566C12.9844 9.76764 12.9238 9.82623 12.9238 9.90045V11.4415C12.9238 11.8262 12.6133 12.1368 12.2305 12.1368H8.21484V11.0938C8.21484 10.9825 8.08789 10.9219 8.00195 10.9903L5.87109 12.6641C5.80273 12.713 5.80273 12.8165 5.87109 12.8692Z" fill="#A0A8B2"/>
</svg>
