<svg width="18" height="18" viewBox="0 0 18 18" fill="none" xmlns="http://www.w3.org/2000/svg">
<path d="M2.25 3.9375C2.25 3.78832 2.30926 3.64524 2.41475 3.53975C2.52024 3.43426 2.66332 3.375 2.8125 3.375H15.1875C15.3367 3.375 15.4798 3.43426 15.5852 3.53975C15.6907 3.64524 15.75 3.78832 15.75 3.9375C15.75 4.08668 15.6907 4.22976 15.5852 4.33525C15.4798 4.44074 15.3367 4.5 15.1875 4.5H2.8125C2.66332 4.5 2.52024 4.44074 2.41475 4.33525C2.30926 4.22976 2.25 4.08668 2.25 3.9375ZM14.2267 6.35175C14.3324 6.24613 14.4756 6.18679 14.625 6.18679C14.7744 6.18679 14.9176 6.24613 15.0233 6.35175C15.1289 6.45737 15.1882 6.60063 15.1882 6.75C15.1882 6.89937 15.1289 7.04263 15.0233 7.14825L13.1704 9L15.0233 10.8517C15.1289 10.9574 15.1882 11.1006 15.1882 11.25C15.1882 11.3994 15.1289 11.5426 15.0233 11.6483C14.9176 11.7539 14.7744 11.8132 14.625 11.8132C14.4756 11.8132 14.3324 11.7539 14.2267 11.6483L11.9767 9.39825C11.9244 9.346 11.8828 9.28393 11.8544 9.21559C11.8261 9.14725 11.8115 9.07399 11.8115 9C11.8115 8.92601 11.8261 8.85275 11.8544 8.78441C11.8828 8.71607 11.9244 8.654 11.9767 8.60175L14.2267 6.35175ZM2.25 7.3125C2.25 7.16332 2.30926 7.02024 2.41475 6.91475C2.52024 6.80926 2.66332 6.75 2.8125 6.75H9.5625C9.71168 6.75 9.85476 6.80926 9.96025 6.91475C10.0657 7.02024 10.125 7.16332 10.125 7.3125C10.125 7.46168 10.0657 7.60476 9.96025 7.71025C9.85476 7.81574 9.71168 7.875 9.5625 7.875H2.8125C2.66332 7.875 2.52024 7.81574 2.41475 7.71025C2.30926 7.60476 2.25 7.46168 2.25 7.3125ZM2.25 10.6875C2.25 10.5383 2.30926 10.3952 2.41475 10.2898C2.52024 10.1843 2.66332 10.125 2.8125 10.125H9.5625C9.71168 10.125 9.85476 10.1843 9.96025 10.2898C10.0657 10.3952 10.125 10.5383 10.125 10.6875C10.125 10.8367 10.0657 10.9798 9.96025 11.0852C9.85476 11.1907 9.71168 11.25 9.5625 11.25H2.8125C2.66332 11.25 2.52024 11.1907 2.41475 11.0852C2.30926 10.9798 2.25 10.8367 2.25 10.6875ZM2.25 14.0625C2.25 13.9133 2.30926 13.7702 2.41475 13.6648C2.52024 13.5593 2.66332 13.5 2.8125 13.5H15.1875C15.3367 13.5 15.4798 13.5593 15.5852 13.6648C15.6907 13.7702 15.75 13.9133 15.75 14.0625C15.75 14.2117 15.6907 14.3548 15.5852 14.4602C15.4798 14.5657 15.3367 14.625 15.1875 14.625H2.8125C2.66332 14.625 2.52024 14.5657 2.41475 14.4602C2.30926 14.3548 2.25 14.2117 2.25 14.0625Z" fill="#0075C9"/>
</svg>
