<svg width="18" height="19" viewBox="0 0 18 19" fill="none" xmlns="http://www.w3.org/2000/svg">
<path d="M16.875 5H14.5687C14.2875 3.70625 13.1625 2.75 11.8125 2.75C10.4625 2.75 9.3375 3.70625 9.05625 5H1.125V6.125H9.05625C9.3375 7.41875 10.4625 8.375 11.8125 8.375C13.1625 8.375 14.2875 7.41875 14.5687 6.125H16.875V5ZM11.8125 7.25C10.8562 7.25 10.125 6.51875 10.125 5.5625C10.125 4.60625 10.8562 3.875 11.8125 3.875C12.7688 3.875 13.5 4.60625 13.5 5.5625C13.5 6.51875 12.7688 7.25 11.8125 7.25Z" fill="#00184D"/>
<path d="M1.125 14H3.43125C3.7125 15.2937 4.8375 16.25 6.1875 16.25C7.5375 16.25 8.6625 15.2937 8.94375 14H16.875V12.875H8.94375C8.6625 11.5813 7.5375 10.625 6.1875 10.625C4.8375 10.625 3.7125 11.5813 3.43125 12.875H1.125V14ZM6.1875 11.75C7.14375 11.75 7.875 12.4812 7.875 13.4375C7.875 14.3937 7.14375 15.125 6.1875 15.125C5.23125 15.125 4.5 14.3937 4.5 13.4375C4.5 12.4812 5.23125 11.75 6.1875 11.75Z" fill="#00184D"/>
</svg>
