<svg width="20" height="20" viewBox="0 0 20 20" fill="none" xmlns="http://www.w3.org/2000/svg">
<path d="M17.4612 8.88892H5.55566V10H17.4612C17.6086 10 17.7499 9.9415 17.8541 9.83731C17.9582 9.73312 18.0168 9.59181 18.0168 9.44447C18.0168 9.29713 17.9582 9.15582 17.8541 9.05163C17.7499 8.94745 17.6086 8.88892 17.4612 8.88892Z" fill="#A0A8B2"/>
<path d="M17.4612 13.3334H5.55566V14.4445H17.4612C17.6086 14.4445 17.7499 14.386 17.8541 14.2818C17.9582 14.1776 18.0168 14.0363 18.0168 13.8889C18.0168 13.7416 17.9582 13.6003 17.8541 13.4961C17.7499 13.3919 17.6086 13.3334 17.4612 13.3334Z" fill="#A0A8B2"/>
<path d="M8.58325 5.55557H17.4721C17.6195 5.55557 17.7608 5.49704 17.865 5.39285C17.9692 5.28866 18.0277 5.14736 18.0277 5.00001C18.0277 4.85267 17.9692 4.71136 17.865 4.60718C17.7608 4.50299 17.6195 4.44446 17.4721 4.44446H9.69436L8.58325 5.55557Z" fill="#A0A8B2"/>
<path d="M9.72216 1.89995C9.66584 1.84301 9.59879 1.79781 9.52488 1.76695C9.45098 1.7361 9.37169 1.72021 9.2916 1.72021C9.21151 1.72021 9.13222 1.7361 9.05832 1.76695C8.98441 1.79781 8.91736 1.84301 8.86104 1.89995L4.38327 6.37773L2.50549 4.35551C2.39498 4.2369 2.24188 4.16705 2.07987 4.16131C1.91786 4.15558 1.76021 4.21445 1.6416 4.32495C1.52299 4.43546 1.45313 4.58856 1.4474 4.75057C1.44167 4.91258 1.50054 5.07023 1.61104 5.18884L4.35549 8.13329L9.72216 2.77773C9.78096 2.72076 9.82771 2.65255 9.85964 2.57715C9.89157 2.50176 9.90802 2.42072 9.90802 2.33884C9.90802 2.25697 9.89157 2.17593 9.85964 2.10053C9.82771 2.02514 9.78096 1.95693 9.72216 1.89995Z" fill="#A0A8B2"/>
</svg>
