<svg width="22" height="22" viewBox="0 0 22 22" fill="none" xmlns="http://www.w3.org/2000/svg">
<path d="M15.8401 7.99337C15.9688 8.12228 16.0411 8.29702 16.0411 8.47921C16.0411 8.6614 15.9688 8.83613 15.8401 8.96504L14.0067 10.7984C13.8778 10.9271 13.7031 10.9994 13.5209 10.9994C13.3387 10.9994 13.164 10.9271 13.0351 10.7984L12.1184 9.88171C12.0509 9.81877 11.9967 9.74287 11.9591 9.65853C11.9215 9.5742 11.9013 9.48316 11.8997 9.39085C11.8981 9.29854 11.9151 9.20685 11.9496 9.12124C11.9842 9.03564 12.0357 8.95787 12.101 8.89259C12.1662 8.82731 12.244 8.77584 12.3296 8.74126C12.4152 8.70668 12.5069 8.6897 12.5992 8.69133C12.6915 8.69296 12.7826 8.71317 12.8669 8.75074C12.9512 8.78832 13.0271 8.84249 13.0901 8.91004L13.5209 9.34087L14.8684 7.99337C14.9973 7.86463 15.1721 7.79231 15.3542 7.79231C15.5364 7.79231 15.7112 7.86463 15.8401 7.99337ZM15.8401 14.0067C15.9076 13.9438 15.9618 13.8679 15.9994 13.7835C16.037 13.6992 16.0572 13.6082 16.0588 13.5159C16.0604 13.4235 16.0434 13.3318 16.0089 13.2462C15.9743 13.1606 15.9228 13.0829 15.8575 13.0176C15.7922 12.9523 15.7145 12.9008 15.6289 12.8663C15.5433 12.8317 15.4516 12.8147 15.3593 12.8163C15.267 12.818 15.1759 12.8382 15.0916 12.8757C15.0073 12.9133 14.9314 12.9675 14.8684 13.035L13.5209 14.3825L13.0901 13.9517C13.0271 13.8842 12.9512 13.83 12.8669 13.7924C12.7826 13.7548 12.6915 13.7346 12.5992 13.733C12.5069 13.7314 12.4152 13.7484 12.3296 13.7829C12.244 13.8175 12.1662 13.869 12.101 13.9343C12.0357 13.9995 11.9842 14.0773 11.9496 14.1629C11.9151 14.2485 11.8981 14.3402 11.8997 14.4325C11.9013 14.5248 11.9215 14.6159 11.9591 14.7002C11.9967 14.7845 12.0509 14.8604 12.1184 14.9234L13.0351 15.84C13.164 15.9688 13.3387 16.0411 13.5209 16.0411C13.7031 16.0411 13.8778 15.9688 14.0067 15.84L15.8401 14.0067ZM6.41675 9.39587C6.41675 9.21354 6.48918 9.03867 6.61811 8.90974C6.74704 8.78081 6.92191 8.70837 7.10425 8.70837H10.3126C10.4949 8.70837 10.6698 8.78081 10.7987 8.90974C10.9276 9.03867 11.0001 9.21354 11.0001 9.39587C11.0001 9.57821 10.9276 9.75308 10.7987 9.88201C10.6698 10.0109 10.4949 10.0834 10.3126 10.0834H7.10425C6.92191 10.0834 6.74704 10.0109 6.61811 9.88201C6.48918 9.75308 6.41675 9.57821 6.41675 9.39587ZM7.10425 13.75C6.92191 13.75 6.74704 13.8225 6.61811 13.9514C6.48918 14.0803 6.41675 14.2552 6.41675 14.4375C6.41675 14.6199 6.48918 14.7947 6.61811 14.9237C6.74704 15.0526 6.92191 15.125 7.10425 15.125H10.3126C10.4949 15.125 10.6698 15.0526 10.7987 14.9237C10.9276 14.7947 11.0001 14.6199 11.0001 14.4375C11.0001 14.2552 10.9276 14.0803 10.7987 13.9514C10.6698 13.8225 10.4949 13.75 10.3126 13.75H7.10425ZM14.6539 3.66671C14.5975 3.16253 14.3573 2.69682 13.9792 2.3586C13.6011 2.02038 13.1116 1.83339 12.6042 1.83337H9.39591C8.8886 1.83339 8.39908 2.02038 8.02095 2.3586C7.64283 2.69682 7.40262 3.16253 7.34625 3.66671H5.72925C5.18224 3.66671 4.65763 3.88401 4.27084 4.2708C3.88405 4.65759 3.66675 5.1822 3.66675 5.72921V18.1042C3.66675 18.6512 3.88405 19.1758 4.27084 19.5626C4.65763 19.9494 5.18224 20.1667 5.72925 20.1667H16.2709C16.5418 20.1667 16.81 20.1134 17.0602 20.0097C17.3104 19.9061 17.5378 19.7541 17.7293 19.5626C17.9208 19.3711 18.0728 19.1437 18.1764 18.8935C18.2801 18.6433 18.3334 18.3751 18.3334 18.1042V5.72921C18.3334 5.45836 18.2801 5.19016 18.1764 4.93992C18.0728 4.68969 17.9208 4.46232 17.7293 4.2708C17.5378 4.07928 17.3104 3.92736 17.0602 3.82371C16.81 3.72006 16.5418 3.66671 16.2709 3.66671H14.6539ZM9.39591 5.95837H12.6042C13.3192 5.95837 13.949 5.59446 14.3193 5.04171H16.2709C16.4532 5.04171 16.6281 5.11414 16.757 5.24307C16.886 5.372 16.9584 5.54687 16.9584 5.72921V18.1042C16.9584 18.2865 16.886 18.4614 16.757 18.5903C16.6281 18.7193 16.4532 18.7917 16.2709 18.7917H5.72925C5.54691 18.7917 5.37204 18.7193 5.24311 18.5903C5.11418 18.4614 5.04175 18.2865 5.04175 18.1042V5.72921C5.04175 5.54687 5.11418 5.372 5.24311 5.24307C5.37204 5.11414 5.54691 5.04171 5.72925 5.04171H7.68083C8.05116 5.59446 8.68091 5.95837 9.39591 5.95837ZM9.39591 3.20837H12.6042C12.7866 3.20837 12.9615 3.28081 13.0904 3.40974C13.2193 3.53867 13.2917 3.71354 13.2917 3.89587C13.2917 4.07821 13.2193 4.25308 13.0904 4.38201C12.9615 4.51094 12.7866 4.58337 12.6042 4.58337H9.39591C9.21358 4.58337 9.03871 4.51094 8.90978 4.38201C8.78085 4.25308 8.70841 4.07821 8.70841 3.89587C8.70841 3.71354 8.78085 3.53867 8.90978 3.40974C9.03871 3.28081 9.21358 3.20837 9.39591 3.20837Z" fill="#A0A8B2"/>
</svg>
