<svg width="22" height="22" viewBox="0 0 22 22" fill="none" xmlns="http://www.w3.org/2000/svg">
<path d="M12.8204 3.66671C12.764 3.16253 12.5238 2.69682 12.1457 2.3586C11.7676 2.02038 11.2781 1.83339 10.7708 1.83337H7.56242C7.0551 1.83339 6.56558 2.02038 6.18746 2.3586C5.80933 2.69682 5.56912 3.16253 5.51275 3.66671H3.89575C3.34874 3.66671 2.82414 3.88401 2.43734 4.2708C2.05055 4.65759 1.83325 5.1822 1.83325 5.72921V18.1042C1.83325 18.6512 2.05055 19.1758 2.43734 19.5626C2.82414 19.9494 3.34874 20.1667 3.89575 20.1667H11.7424C11.3494 19.7576 11.0167 19.2946 10.7543 18.7917H3.89575C3.71342 18.7917 3.53855 18.7193 3.40962 18.5903C3.28068 18.4614 3.20825 18.2865 3.20825 18.1042V5.72921C3.20825 5.54687 3.28068 5.372 3.40962 5.24307C3.53855 5.11414 3.71342 5.04171 3.89575 5.04171H5.84733C6.21767 5.59446 6.84742 5.95837 7.56242 5.95837H10.7708C11.4858 5.95837 12.1155 5.59446 12.4858 5.04171H14.4374C14.6198 5.04171 14.7946 5.11414 14.9236 5.24307C15.0525 5.372 15.1249 5.54687 15.1249 5.72921V10.153C15.5797 10.083 16.0411 10.0655 16.4999 10.1008V5.72921C16.4999 5.1822 16.2826 4.65759 15.8958 4.2708C15.509 3.88401 14.9844 3.66671 14.4374 3.66671H12.8204ZM12.8287 3.75471L12.8333 3.89587C12.8333 3.84821 12.8314 3.80146 12.8287 3.75471ZM7.56242 3.20837H10.7708C10.9531 3.20837 11.128 3.28081 11.2569 3.40974C11.3858 3.53867 11.4583 3.71354 11.4583 3.89587C11.4583 4.07821 11.3858 4.25308 11.2569 4.38201C11.128 4.51094 10.9531 4.58337 10.7708 4.58337H7.56242C7.38008 4.58337 7.20521 4.51094 7.07628 4.38201C6.94735 4.25308 6.87492 4.07821 6.87492 3.89587C6.87492 3.71354 6.94735 3.53867 7.07628 3.40974C7.20521 3.28081 7.38008 3.20837 7.56242 3.20837ZM10.9605 12.9287C11.4529 12.1273 12.1271 11.453 12.9286 10.9606L13.7774 10.1109C13.845 10.0479 13.8991 9.97203 13.9367 9.8877C13.9743 9.80337 13.9945 9.71233 13.9961 9.62002C13.9978 9.52771 13.9808 9.43601 13.9462 9.35041C13.9116 9.2648 13.8602 9.18704 13.7949 9.12176C13.7296 9.05647 13.6518 9.005 13.5662 8.97043C13.4806 8.93585 13.3889 8.91887 13.2966 8.9205C13.2043 8.92213 13.1133 8.94233 13.0289 8.97991C12.9446 9.01748 12.8687 9.07166 12.8058 9.13921L8.24992 13.695L6.44409 11.8892C6.31376 11.7678 6.14138 11.7017 5.96327 11.7048C5.78516 11.7079 5.61523 11.7801 5.48926 11.9061C5.3633 12.032 5.29115 12.202 5.28801 12.3801C5.28487 12.5582 5.35098 12.7305 5.47242 12.8609L7.76408 15.1525C7.89299 15.2813 8.06773 15.3536 8.24992 15.3536C8.43211 15.3536 8.60684 15.2813 8.73575 15.1525L10.9605 12.9287ZM21.0833 16.0417C21.0833 14.7046 20.5521 13.4222 19.6066 12.4767C18.6611 11.5312 17.3787 11 16.0416 11C14.7045 11 13.4221 11.5312 12.4766 12.4767C11.5311 13.4222 10.9999 14.7046 10.9999 16.0417C10.9999 17.3788 11.5311 18.6612 12.4766 19.6067C13.4221 20.5522 14.7045 21.0834 16.0416 21.0834C17.3787 21.0834 18.6611 20.5522 19.6066 19.6067C20.5521 18.6612 21.0833 17.3788 21.0833 16.0417ZM16.4999 16.5L16.5008 18.7945C16.5008 18.916 16.4525 19.0326 16.3666 19.1185C16.2806 19.2045 16.1641 19.2528 16.0425 19.2528C15.9209 19.2528 15.8044 19.2045 15.7184 19.1185C15.6325 19.0326 15.5842 18.916 15.5842 18.7945V16.5H13.2879C13.1664 16.5 13.0498 16.4518 12.9638 16.3658C12.8779 16.2798 12.8296 16.1633 12.8296 16.0417C12.8296 15.9201 12.8779 15.8036 12.9638 15.7176C13.0498 15.6317 13.1664 15.5834 13.2879 15.5834H15.5833V13.2917C15.5833 13.1701 15.6315 13.0536 15.7175 12.9676C15.8034 12.8817 15.92 12.8334 16.0416 12.8334C16.1631 12.8334 16.2797 12.8817 16.3657 12.9676C16.4516 13.0536 16.4999 13.1701 16.4999 13.2917V15.5834H18.7888C18.9104 15.5834 19.027 15.6317 19.1129 15.7176C19.1989 15.8036 19.2472 15.9201 19.2472 16.0417C19.2472 16.1633 19.1989 16.2798 19.1129 16.3658C19.027 16.4518 18.9104 16.5 18.7888 16.5H16.4999Z" fill="#A0A8B2"/>
</svg>
