<svg width="20" height="21" viewBox="0 0 20 21" fill="none" xmlns="http://www.w3.org/2000/svg">
<path fill-rule="evenodd" clip-rule="evenodd" d="M10.0011 2.16663C5.40106 2.16663 1.66772 5.89996 1.66772 10.5C1.66772 15.1 5.40106 18.8333 10.0011 18.8333C14.6011 18.8333 18.3344 15.1 18.3344 10.5C18.3344 5.89996 14.6011 2.16663 10.0011 2.16663ZM9.16772 16.3333V14.6666H10.8344V16.3333H9.16772ZM11.8094 10.6416L12.5594 9.87496C13.0344 9.39996 13.3344 8.73329 13.3344 7.99996C13.3344 6.15829 11.8427 4.66663 10.0011 4.66663C8.15939 4.66663 6.66772 6.15829 6.66772 7.99996H8.33439C8.33439 7.08329 9.08439 6.33329 10.0011 6.33329C10.9177 6.33329 11.6677 7.08329 11.6677 7.99996C11.6677 8.45829 11.4844 8.87496 11.1761 9.17496L10.1427 10.225C9.54272 10.8333 9.16772 11.6666 9.16772 12.5833V13H10.8344C10.8344 11.75 11.2094 11.25 11.8094 10.6416Z" fill="#A0A8B2"/>
</svg>
