<svg width="56" height="12" viewBox="0 0 56 12" fill="none" xmlns="http://www.w3.org/2000/svg">
<path fill-rule="evenodd" clip-rule="evenodd" d="M44.8575 10.2453C44.8218 9.96029 44.8029 9.6601 44.8029 9.34864V5.87757V5.86243C44.8029 5.74359 44.7917 5.6267 44.7714 5.51136C44.6479 4.86437 44.2139 4.32611 43.6325 4.06009C43.3879 3.9599 43.1239 3.89 42.8396 3.85039C42.4864 3.80145 42.1367 3.77699 41.7924 3.77699C41.4111 3.77699 41.0337 3.81466 40.6574 3.89C40.2815 3.96728 39.9433 4.09388 39.6421 4.2733C39.5582 4.32262 39.4778 4.37699 39.4009 4.43757L39.4024 4.43951C39.3974 4.44495 39.3897 4.44883 39.3839 4.45427C39.3766 4.46009 39.3689 4.46398 39.3635 4.46942C39.3562 4.47524 39.3505 4.47912 39.3447 4.48495C38.8811 4.85077 38.5818 5.54359 38.5706 6.17971V6.21155V6.22126H40.452C40.4708 6.02864 40.5024 5.83252 40.5658 5.66048H40.5678C40.6666 5.39252 40.8875 5.18476 41.1626 5.10165C41.3195 5.05272 41.5084 5.02825 41.7327 5.02825C42.0151 5.02825 42.2414 5.07175 42.4187 5.14903C42.4249 5.15097 42.4299 5.15291 42.4341 5.15485V5.15641C42.7127 5.27757 42.9069 5.5568 42.9069 5.8834C42.9069 6.2232 42.6938 6.51369 42.3929 6.62515C42.3464 6.64223 42.2956 6.65738 42.2433 6.67019C42.0317 6.7234 41.787 6.76301 41.5142 6.78942C41.2391 6.81738 40.9602 6.8535 40.6782 6.8966C40.3935 6.94204 40.1134 7.00262 39.8348 7.07796C39.7487 7.10282 39.5932 7.16301 39.5932 7.16301C38.9538 7.41971 38.479 8.00107 38.3706 8.70515C38.3609 8.79952 38.3559 8.89777 38.3559 8.99952C38.3559 9.14864 38.3667 9.29039 38.3875 9.42243C38.5406 10.1754 39.1654 10.8057 39.8572 10.9587C39.9433 10.9778 40.2554 11.0609 40.7059 11.0609C41.0387 11.0609 41.5311 11.0003 41.9386 10.876C42.3441 10.749 42.6976 10.5304 43.0004 10.2189C43.0077 10.3343 43.0247 10.4492 43.0454 10.5607C43.0681 10.6718 43.0978 10.7813 43.1316 10.8888H45.0422C44.9545 10.7455 44.8929 10.5304 44.8575 10.2453ZM42.922 8.21272C42.922 8.31835 42.9108 8.46165 42.8885 8.63913C42.8658 8.81854 42.8061 8.99369 42.7088 9.16922C42.6115 9.3432 42.4618 9.49233 42.2583 9.6166C42.0544 9.7432 41.7662 9.80573 41.3961 9.80573C41.2672 9.80573 41.1006 9.79408 40.9602 9.76961C40.9025 9.75835 40.8313 9.73388 40.8313 9.73388C40.6316 9.66204 40.4627 9.52029 40.3565 9.33738C40.3023 9.24495 40.2646 9.14126 40.2461 9.03175V9.02981C40.2427 9.00728 40.2403 8.98437 40.2384 8.96184C40.2365 8.93738 40.2365 8.91252 40.2365 8.88612C40.2365 8.86165 40.2365 8.83718 40.2384 8.81272C40.2384 8.8034 40.2384 8.79563 40.2403 8.78631C40.2442 8.74864 40.2646 8.65816 40.2665 8.65039C40.3435 8.36534 40.5566 8.13505 40.8313 8.03874C40.8502 8.0333 40.869 8.02748 40.8875 8.02165C41.196 7.93699 41.615 7.86515 41.8074 7.8368C41.957 7.81427 42.1009 7.79719 42.2375 7.76922C42.376 7.74243 42.5034 7.70864 42.6226 7.66903C42.7423 7.62942 42.8419 7.57272 42.922 7.50088V8.21272ZM28.0693 10.2453C28.0336 9.96029 28.0151 9.6601 28.0151 9.34864V5.87757C28.0151 5.87757 28.0132 5.86631 28.0132 5.86243C28.0132 5.74359 28.0035 5.6267 27.9835 5.51136C27.8577 4.86437 27.4261 4.32611 26.8428 4.06009C26.5997 3.9599 26.3357 3.89 26.0518 3.85039C25.6982 3.80145 25.3485 3.77699 25.0042 3.77699C24.6229 3.77699 24.2455 3.81466 23.8692 3.89C23.4937 3.96728 23.1552 4.09388 22.8543 4.2733C22.77 4.32262 22.6896 4.37699 22.6131 4.43757L22.615 4.43951C22.6092 4.44495 22.6015 4.44883 22.5961 4.45427C22.5884 4.46009 22.5811 4.46398 22.5734 4.46942C22.5677 4.47524 22.5623 4.47912 22.555 4.48495C22.0929 4.85077 21.794 5.54359 21.7824 6.17971V6.21155V6.22126H23.6638C23.6822 6.02864 23.7146 5.83252 23.7777 5.66048C23.8788 5.39252 24.0993 5.18476 24.3744 5.10165C24.5313 5.05272 24.7202 5.02825 24.9445 5.02825C25.2254 5.02825 25.4532 5.07175 25.6305 5.14903C25.6367 5.15097 25.6401 5.15291 25.6455 5.15485V5.15641C25.9245 5.27757 26.1187 5.5568 26.1187 5.8834C26.1187 6.2232 25.9037 6.51369 25.6047 6.62515C25.5582 6.64223 25.5074 6.65738 25.4551 6.67019C25.2419 6.7234 24.9988 6.76301 24.726 6.78942C24.4509 6.81738 24.1724 6.8535 23.89 6.8966C23.6057 6.94204 23.3252 7.00262 23.0467 7.07796C22.9589 7.10282 22.8035 7.16301 22.8035 7.16301C22.1664 7.41971 21.6909 8.00107 21.5804 8.70515C21.5731 8.79952 21.5678 8.89777 21.5678 8.99952C21.5678 9.14864 21.5785 9.29039 21.5993 9.42243C21.7524 10.1754 22.3772 10.8057 23.069 10.9587C23.1532 10.9778 23.4672 11.0609 23.9162 11.0609C24.2509 11.0609 24.7426 11.0003 25.1485 10.876C25.5563 10.749 25.9095 10.5304 26.2107 10.2189C26.2199 10.3343 26.2349 10.4492 26.2572 10.5607C26.2799 10.6718 26.3076 10.7813 26.3434 10.8888H28.2544C28.1648 10.7455 28.1028 10.5304 28.0693 10.2453ZM26.1338 8.21272C26.1338 8.31835 26.1211 8.46165 26.1003 8.63913C26.0776 8.81854 26.018 8.99369 25.9206 9.16922C25.8233 9.3432 25.6721 9.49233 25.4701 9.6166C25.2662 9.7432 24.978 9.80573 24.606 9.80573C24.4771 9.80573 24.3128 9.79408 24.1701 9.76961C24.1124 9.75835 24.0431 9.73388 24.0431 9.73388C23.8415 9.66204 23.673 9.52029 23.5684 9.33738C23.5141 9.24495 23.4749 9.14126 23.458 9.03175V9.02981C23.4545 9.00728 23.4526 8.98437 23.4503 8.96184C23.4487 8.93738 23.4468 8.91252 23.4468 8.88612C23.4468 8.86165 23.4487 8.83718 23.4503 8.81272C23.4503 8.8034 23.4503 8.79563 23.4526 8.78631C23.456 8.74864 23.4768 8.65816 23.4787 8.65039C23.5553 8.36534 23.7684 8.13505 24.0431 8.03874C24.062 8.0333 24.0808 8.02748 24.0978 8.02165C24.4082 7.93699 24.8272 7.86515 25.0177 7.8368C25.1689 7.81427 25.3131 7.79719 25.4497 7.76922C25.5878 7.74243 25.7152 7.70864 25.8348 7.66903C25.9545 7.62942 26.0537 7.57272 26.1338 7.50088V8.21272ZM55.8147 5.10942C55.6896 4.79213 55.5177 4.53544 55.2968 4.33932C55.0768 4.1432 54.8109 3.99951 54.5004 3.91097C54.19 3.82204 53.8552 3.77699 53.4924 3.77699C53.0158 3.77699 52.6006 3.89194 52.2509 4.12611C51.9031 4.35835 51.6265 4.62631 51.4226 4.92845C51.2375 4.49971 50.9644 4.20145 50.6073 4.03174C50.2484 3.86204 49.8517 3.77699 49.4197 3.77699C48.9676 3.77699 48.5671 3.87485 48.2193 4.07136C47.9054 4.24689 47.6341 4.48844 47.4021 4.79213V3.96378H45.712H45.5193V10.8888H47.4021V6.87058C47.4021 6.53078 47.451 6.25699 47.5479 6.04728C47.6453 5.83796 47.7634 5.67757 47.8996 5.56417C48.0362 5.45311 48.1781 5.37738 48.3239 5.33777C48.3709 5.32456 48.414 5.31524 48.4532 5.30592C48.5129 5.29621 48.5729 5.29078 48.6344 5.29078C49.2346 5.29078 49.7286 5.74359 49.7994 6.32884C49.8013 6.35136 49.8029 6.37233 49.8052 6.39485C49.8125 6.5968 49.8182 6.79874 49.8182 7.00456V10.8888H51.7011V7.03097C51.7011 6.81738 51.7161 6.60456 51.7477 6.39485C51.7685 6.26087 51.8004 6.13427 51.8469 6.01738C52.0247 5.59097 52.4417 5.29078 52.9296 5.29078C53.504 5.29078 53.9826 5.70748 54.0834 6.25893C54.0853 6.27408 54.0868 6.29078 54.0888 6.30786C54.1076 6.51369 54.1149 6.73272 54.1149 6.96495V10.8888H56.0001V6.25505C56.0001 5.80767 55.9386 5.42631 55.8147 5.10942ZM35.0815 5.46049C35.0068 5.10748 34.876 4.80922 34.6906 4.56417C34.5055 4.31874 34.2512 4.12611 33.9277 3.98825C33.6041 3.84844 33.1913 3.78087 32.688 3.78087C32.413 3.78087 32.1437 3.82398 31.8801 3.90903C31.4238 4.06553 31.0256 4.35058 30.7301 4.72068C30.7001 4.76223 30.6721 4.80379 30.6444 4.84728V3.9599H28.7592V3.96728V5.32262V10.8908H30.6444V7.26088C30.6444 6.55719 30.7582 6.04922 30.9879 5.74165C31.016 5.70592 31.0445 5.67369 31.0741 5.64185L31.0722 5.6399C31.2238 5.46437 31.4219 5.33039 31.6462 5.25854C31.7624 5.22087 31.8859 5.20184 32.0148 5.20184C32.5684 5.20184 33.0355 5.56223 33.202 6.06437C33.2751 6.31175 33.3105 6.61544 33.3105 6.9801V10.8908H35.1953V6.63253C35.1953 6.20418 35.158 5.8135 35.0815 5.46049ZM20.9395 7.34631C20.7825 7.06476 20.5786 6.83097 20.3258 6.64767C20.0734 6.46282 19.7857 6.31757 19.4621 6.20806C19.1385 6.10049 18.8115 6.00767 18.4768 5.93233C18.1325 5.85699 17.7997 5.78515 17.4761 5.72107C17.1526 5.65699 16.8663 5.57738 16.6124 5.48495C16.5955 5.47951 16.5001 5.44146 16.4962 5.43951C16.4831 5.43408 16.4031 5.39835 16.4012 5.39835C16.3373 5.36612 16.2758 5.33427 16.2196 5.3001C15.9988 5.15485 15.851 4.90359 15.851 4.6166C15.851 4.27524 16.0626 3.98087 16.36 3.86204C16.5039 3.81077 16.657 3.77505 16.8198 3.75407C16.9956 3.73349 17.1487 3.72223 17.278 3.72223C17.6858 3.72223 18.0482 3.79757 18.3645 3.95058C18.6807 4.10165 18.8823 4.3999 18.9685 4.8434H20.8833C20.831 4.37699 20.6998 3.98087 20.4905 3.65039C20.2793 3.31835 20.0177 3.05038 19.7014 2.84456C19.3836 2.63873 19.0301 2.48961 18.6395 2.39873C18.2467 2.30669 17.8355 2.25932 17.4069 2.25932C17.031 2.25932 16.6366 2.29893 16.2231 2.37427C15.8102 2.45 15.434 2.58203 15.0962 2.77271C14.7595 2.96145 14.4787 3.21077 14.2602 3.52029C14.0389 3.82786 13.9289 4.20922 13.9289 4.66592C13.9289 5.08689 14.0039 5.44146 14.1551 5.73039C14.3048 6.01544 14.5068 6.25117 14.7595 6.43641C15.0119 6.62126 15.2958 6.76651 15.6117 6.87408C15.928 6.98398 16.2588 7.07408 16.6012 7.15175C16.934 7.22709 17.2611 7.29699 17.5846 7.36301C17.9062 7.42748 18.1925 7.5067 18.4453 7.59719C18.6876 7.68573 18.8881 7.80301 19.047 7.94632L19.0451 7.94826C19.217 8.10865 19.324 8.337 19.324 8.59175C19.324 8.84496 19.217 9.07137 19.0489 9.2337C18.9443 9.32806 18.8208 9.40341 18.6788 9.45816C18.486 9.5335 18.2783 9.58671 18.0578 9.61311C17.8389 9.63913 17.6427 9.65273 17.4704 9.65273C16.9767 9.65273 16.5543 9.54515 16.1992 9.32806C15.846 9.11253 15.6417 8.7335 15.5875 8.19175H13.7531C13.7627 8.69001 13.8635 9.12069 14.0505 9.48263C14.2394 9.84535 14.4975 10.149 14.8246 10.3925C15.1539 10.636 15.5409 10.8174 15.9876 10.9382C16.4327 11.057 16.921 11.1156 17.448 11.1156C17.8782 11.1156 18.3121 11.0663 18.753 10.97C19.1947 10.8718 19.5948 10.7153 19.9557 10.4982C20.3147 10.2811 20.6086 9.99991 20.8348 9.65273C21.0607 9.30709 21.173 8.88457 21.173 8.38593C21.173 7.97466 21.0945 7.62748 20.9395 7.34631ZM35.9156 10.8888H37.8004V1.32689H35.9156V10.8888ZM5.36129 8.76185C5.30858 8.92418 5.3105 9.65273 5.31435 9.80379V11.9968L7.16337 11.9987C7.27379 11.9987 7.33573 12.0026 7.41614 11.9968C7.44038 11.9968 7.465 11.9949 7.48693 11.9929C7.57119 11.9836 7.64621 11.963 7.74701 11.9102C7.75278 11.9063 7.75625 11.9028 7.76202 11.8986C7.97131 11.7758 8.11174 11.5459 8.11174 11.2834C8.11174 11.2663 8.11174 11.2512 8.10981 11.2345C8.10981 10.9797 8.10981 10.5886 8.11174 10.4135C8.11751 10.0019 8.16406 9.48845 8.30795 9.21078L9.87881 6.63447H9.87689C9.95345 6.52146 9.99654 6.38554 9.99654 6.2267V6.21583C9.99654 6.08729 9.96307 5.98321 9.90498 5.89661C9.90113 5.89078 9.89767 5.88495 9.8919 5.87952C7.01756 1.97815 5.66792 0.102035 5.63214 0.0511614C5.62444 0.0395109 5.61713 0.0301905 5.60982 0.0228119V0.0204818C5.59828 0.009608 5.58751 -0.000100746 5.57058 -0.000100746C5.57058 -0.000100746 5.54981 -0.0020425 5.53519 0.0150449V0.0169867C5.52903 0.0247537 5.5198 0.039511 5.51056 0.0546566C5.49941 0.0698022 5.49017 0.0868896 5.48055 0.102035C5.47863 0.107861 5.47517 0.109414 5.47517 0.109414H5.47709C5.08236 0.800288 5.49017 1.40417 5.76872 1.91951C5.90722 2.18398 6.03957 2.41971 6.17461 2.64262V2.64417C6.45316 3.10476 6.79326 3.62592 7.11682 4.14864C7.36574 4.49971 7.51502 4.89971 7.51502 5.39991C7.51502 5.90204 7.31534 6.45505 7.01756 6.85544C6.66784 7.40651 6.21578 7.70088 5.72563 8.15797C5.52711 8.34437 5.41707 8.50321 5.36129 8.76185ZM4.27092 8.15785C3.77923 7.70076 3.32678 7.40639 2.9786 6.85532C2.68159 6.45493 2.48114 5.90192 2.48114 5.39978C2.48114 4.89958 2.6308 4.49958 2.87972 4.14851C3.20328 3.62579 3.54339 3.10463 3.82232 2.64404V2.64249C3.95505 2.41958 4.08971 2.18385 4.22821 1.91938C4.50637 1.40404 4.91419 0.800153 4.51945 0.109276C4.51945 0.109276 4.51753 0.107723 4.51407 0.101898C4.50445 0.086752 4.49522 0.0696646 4.4856 0.0545189C4.47637 0.0393732 4.46713 0.0246159 4.46175 0.0168489L4.45982 0.0149071C4.44482 -0.00218034 4.42596 -0.000238586 4.42596 -0.000238586C4.40904 -0.000238586 4.39634 0.00947018 4.38518 0.020344V0.0226741C4.37749 0.0300528 4.3721 0.0393732 4.36441 0.0510237C4.32863 0.101898 2.9786 1.97802 0.104647 5.87939C0.099261 5.88483 0.095029 5.89066 0.0900275 5.89648C0.0334717 5.98308 0 6.08716 0 6.21571V6.22658C0 6.38541 0.0430901 6.52134 0.117728 6.63435H0.116189L1.68859 9.21067C1.83248 9.48834 1.87942 10.0017 1.88481 10.4134C1.88673 10.5885 1.88673 10.9796 1.88673 11.2344C1.88481 11.2511 1.88481 11.2662 1.88481 11.2833C1.88481 11.5458 2.02523 11.7757 2.23453 11.8984C2.23837 11.9027 2.24376 11.9062 2.24953 11.9101C2.35072 11.9629 2.42343 11.9835 2.50769 11.9928C2.53193 11.9948 2.55616 11.9967 2.5804 11.9967C2.66081 12.0025 2.72237 11.9986 2.83125 11.9986H2.83317L4.68027 11.9967V9.80368C4.68604 9.65261 4.68797 8.92406 4.63564 8.76173C4.57947 8.50309 4.46867 8.34426 4.27092 8.15785ZM5.00003 3.39174C3.91354 3.39174 3.03482 4.27912 3.03482 5.37543C3.03482 6.47019 3.91354 7.35912 5.00003 7.35912C6.08459 7.35912 6.96563 6.47019 6.96563 5.37543C6.96563 4.27912 6.08459 3.39174 5.00003 3.39174Z" fill="#737B81"/>
</svg>
