<svg width="32" height="32" viewBox="0 0 32 32" fill="none" xmlns="http://www.w3.org/2000/svg">
<path fill-rule="evenodd" clip-rule="evenodd" d="M16 32C24.8366 32 32 24.8366 32 16C32 7.16344 24.8366 0 16 0C7.16344 0 0 7.16344 0 16C0 24.8366 7.16344 32 16 32ZM16 30C23.732 30 30 23.732 30 16C30 8.26801 23.732 2 16 2C8.26801 2 2 8.26801 2 16C2 23.732 8.26801 30 16 30Z" fill="#0075C9"/>
<path d="M15.3922 23.6272V27.7031C13.4329 27.5959 11.5325 26.9956 9.86732 25.9578V24.8533C9.89368 24.0467 9.75843 23.243 9.46953 22.4894L6.33141 17.3973C6.1731 17.1504 6.09229 16.8619 6.09937 16.5688C6.09338 16.3459 6.15501 16.1264 6.27616 15.9392C14.5635 4.80493 14.8507 4.30786 14.8507 4.30786C15.9557 5.78801 15.0496 7.06934 14.464 8.15184C14.1878 8.67099 13.9226 9.13492 13.6574 9.57676C13.1049 10.4825 12.4309 11.5098 11.79 12.5371C11.2905 13.2476 11.0312 14.099 11.0496 14.9672C11.0772 15.9989 11.4204 16.9973 12.0331 17.8281C12.7686 18.7972 13.6351 19.6596 14.6077 20.3907C14.9711 20.6945 15.2237 21.1101 15.3259 21.5726C15.41 22.254 15.4396 22.941 15.4143 23.6272" fill="#0075C9"/>
<path d="M12.0331 14.912C12.0243 14.1259 12.2495 13.3549 12.68 12.697C13.1105 12.0391 13.727 11.524 14.451 11.217C15.175 10.9101 15.974 10.8252 16.7464 10.9732C17.5188 11.1212 18.2297 11.4954 18.7889 12.0481C19.3481 12.6009 19.7303 13.3074 19.887 14.0778C20.0437 14.8482 19.9678 15.6478 19.6689 16.375C19.37 17.1021 18.8616 17.7241 18.2083 18.1618C17.5551 18.5995 16.7864 18.8333 15.9999 18.8333C15.4819 18.8362 14.9684 18.7371 14.4887 18.5416C14.0089 18.3461 13.5724 18.0581 13.2041 17.694C12.8357 17.3298 12.5427 16.8967 12.3418 16.4194C12.1409 15.9421 12.036 15.4299 12.0331 14.912Z" fill="#0075C9"/>
<path d="M25.6684 17.3972L22.5413 22.4673C22.2565 23.2217 22.125 24.0253 22.1546 24.8311C22.1546 25.0741 22.1546 25.538 22.1546 25.9357C20.4902 26.9752 18.5894 27.5756 16.6297 27.6809V23.6271C16.6044 22.941 16.634 22.254 16.7181 21.5726C16.8278 21.1105 17.0835 20.696 17.4474 20.3906C18.4165 19.6593 19.2793 18.7968 20.0109 17.828C20.6281 16.9997 20.9718 15.9997 20.9944 14.9671C21.0071 14.0827 20.7318 13.2181 20.2098 12.5039C19.5689 11.4766 18.8949 10.4493 18.3314 9.54356C18.0662 9.10172 17.801 8.63779 17.5247 8.11864C16.9281 7.01404 16.0441 5.75481 17.127 4.27466C17.127 4.27466 17.4253 4.77172 25.7126 15.906C25.8376 16.092 25.9032 16.3116 25.9004 16.5356C25.9047 16.8231 25.8197 17.1047 25.6573 17.342" fill="#0075C9"/>
</svg>
